<?xml version="1.0" standalone="no"?>
<!DOCTYPE svg PUBLIC "-//W3C//DTD SVG 20010904//EN"
 "http://www.w3.org/TR/2001/REC-SVG-20010904/DTD/svg10.dtd">
<svg version="1.0" xmlns="http://www.w3.org/2000/svg"
 width="400.000000pt" height="400.000000pt" viewBox="0 0 400.000000 400.000000"
 preserveAspectRatio="xMidYMid meet">

<g transform="translate(0.000000,400.000000) scale(0.100000,-0.100000)"
fill="#000000" stroke="none">
<path d="M1188 3993 c655 -2 1192 -5 1192 -7 0 -2 -13 -32 -29 -67 -15 -35
-67 -154 -115 -264 -111 -254 -105 -242 -130 -250 -11 -4 -28 -9 -36 -12 -8
-3 -31 -6 -50 -6 -19 0 -29 -2 -23 -4 7 -3 13 -9 13 -15 0 -6 -7 -8 -15 -5 -8
4 -17 1 -21 -4 -3 -6 -17 -8 -30 -5 -17 5 -36 -1 -61 -18 -20 -14 -40 -23 -45
-20 -4 3 -8 0 -8 -5 0 -6 -4 -11 -10 -11 -12 0 -89 -53 -90 -62 0 -3 9 -4 20
-1 11 3 20 9 20 13 0 8 29 21 60 26 8 2 20 10 26 18 6 9 16 16 21 16 6 0 16 7
23 15 7 8 20 15 29 15 8 0 -13 -20 -49 -44 -36 -24 -68 -42 -71 -40 -4 2 -14
-5 -24 -16 -10 -11 -23 -20 -29 -20 -6 0 -21 -16 -34 -35 -12 -19 -29 -35 -37
-35 -8 0 -12 -6 -9 -14 3 -8 1 -17 -5 -21 -6 -3 -11 -15 -11 -26 0 -11 -13
-27 -30 -38 -16 -10 -27 -21 -23 -24 3 -4 1 -7 -5 -7 -7 0 -12 -7 -12 -16 0
-8 -4 -12 -10 -9 -5 3 -10 0 -10 -9 0 -8 -12 -24 -27 -36 -16 -12 -21 -18 -13
-14 11 5 10 2 -3 -13 -17 -19 -17 -21 2 -34 20 -14 20 -14 1 -69 -11 -30 -17
-62 -14 -72 3 -9 1 -19 -5 -22 -5 -3 -8 -32 -6 -64 1 -31 0 -38 -2 -14 -2 23
-8 42 -14 42 -5 0 -9 11 -9 24 0 37 22 126 30 121 4 -2 12 7 18 21 11 23 10
24 -7 14 -11 -5 -23 -19 -26 -30 -4 -11 -10 -18 -15 -15 -4 3 -11 -2 -14 -11
-4 -10 -2 -13 6 -8 8 5 9 -1 3 -22 -11 -43 -17 -212 -7 -196 7 10 11 5 16 -18
9 -46 6 -59 -6 -30 -7 16 -12 20 -15 12 -3 -8 0 -24 7 -37 13 -24 6 -110 -9
-120 -5 -2 -12 -21 -16 -42 -4 -20 -13 -46 -21 -57 -8 -11 -14 -29 -14 -39 0
-27 -40 -120 -60 -137 -9 -9 -20 -34 -25 -55 -4 -22 -9 -51 -12 -65 -2 -13
-10 -31 -16 -39 -10 -12 -9 -14 5 -8 13 4 16 2 11 -11 -3 -9 -10 -22 -15 -29
-6 -7 -7 -17 -3 -22 3 -6 1 -19 -5 -28 -11 -17 -11 -17 -6 0 9 27 -3 39 -21
22 -10 -11 -13 -24 -8 -42 5 -21 8 -24 16 -12 10 17 10 18 14 -48 2 -29 -1
-53 -6 -53 -5 0 -9 -12 -9 -26 0 -14 -4 -23 -10 -19 -10 6 -14 -7 -11 -32 1
-6 -3 -14 -9 -18 -5 -3 -10 -21 -9 -38 0 -27 2 -29 9 -12 7 16 9 17 9 3 1 -9
-2 -24 -5 -32 -5 -14 -9 -14 -23 -4 -14 12 -15 11 -2 -4 17 -23 41 -23 42 0 0
13 2 12 9 -5 6 -14 5 -35 -2 -55 -15 -44 -27 -58 -49 -58 -11 0 -19 -4 -19
-10 0 -5 5 -10 10 -10 6 0 10 -7 10 -15 0 -13 -4 -14 -20 -5 -14 7 -20 7 -20
0 0 -5 7 -10 15 -10 8 0 15 -1 15 -2 -3 -26 -41 -112 -48 -111 -5 1 -8 -7 -5
-18 5 -18 7 -19 15 -6 5 9 15 14 23 11 11 -5 11 -11 3 -30 -6 -13 -15 -24 -20
-24 -4 0 -8 -6 -8 -14 0 -8 -4 -18 -10 -21 -6 -4 -8 7 -5 27 l5 33 -13 -35
c-8 -19 -22 -67 -32 -107 -15 -58 -16 -77 -7 -95 7 -13 16 -43 22 -68 18 -89
25 -111 34 -110 13 2 25 -21 19 -36 -2 -7 -11 -10 -19 -7 -8 3 -14 -1 -14 -11
0 -14 11 -19 37 -15 3 0 10 -7 15 -16 10 -17 6 -25 -60 -148 -21 -38 -30 -67
-26 -81 3 -14 -5 -44 -20 -77 -25 -51 -30 -55 -83 -72 -42 -13 -58 -15 -63 -6
-11 18 -33 6 -35 -19 -1 -12 -1 -22 0 -22 2 0 33 11 69 25 37 14 71 25 76 25
6 0 1 -24 -10 -52 -19 -49 -50 -221 -50 -275 l0 -23 1500 0 1500 0 0 2000 0
2000 -2002 -2 c-1328 -2 -1601 -4 -810 -5z m1872 -25 l0 -22 20 22 c20 21 23
21 455 22 l435 0 0 -894 c0 -554 -4 -897 -9 -901 -6 -3 -46 -6 -91 -7 -76 -2
-79 -3 -54 -16 14 -8 38 -12 53 -9 16 3 39 -2 61 -16 27 -17 31 -23 18 -25
-25 -5 -23 -22 2 -22 18 0 20 -7 20 -66 0 -66 0 -66 -26 -61 -15 3 -31 -2 -41
-11 -14 -14 -16 -14 -24 0 -7 13 -31 15 -130 15 -67 0 -124 4 -128 9 -9 13
-34 17 -26 4 3 -5 -3 -10 -14 -10 -12 0 -26 9 -33 20 -7 11 -18 20 -25 20 -6
0 -19 7 -27 16 -21 20 -21 41 -1 24 12 -10 15 -9 15 5 0 17 1 17 20 0 12 -11
20 -13 20 -6 0 17 -53 81 -67 81 -7 0 -10 6 -7 14 3 8 12 12 20 9 8 -3 11 -9
8 -14 -3 -5 0 -9 7 -9 7 0 9 10 6 27 -5 26 -4 26 9 8 8 -10 14 -16 14 -13 0 4
3 14 7 24 4 11 3 15 -5 10 -6 -3 -13 -2 -17 4 -3 5 -22 10 -41 10 -21 0 -37 6
-40 15 -4 8 -10 13 -14 10 -10 -6 -18 15 -24 65 -5 44 -16 70 -27 70 -20 0
-49 65 -43 95 4 17 7 36 7 43 0 6 4 12 9 12 4 0 8 -7 8 -15 0 -9 6 -12 15 -9
18 7 20 25 3 22 -8 -2 -14 9 -16 25 -2 15 -8 27 -15 27 -8 0 -8 3 0 11 8 8 8
19 0 40 -10 26 -28 35 -59 30 -4 0 -5 5 -2 13 3 8 -4 32 -15 54 -11 22 -18 42
-15 45 4 3 -1 16 -10 29 -9 12 -16 18 -16 12 0 -5 5 -15 12 -22 7 -7 8 -12 2
-12 -5 0 -17 16 -26 35 -12 28 -13 33 -2 24 17 -14 17 -9 4 26 -6 16 -14 23
-22 19 -6 -4 -8 -3 -5 4 10 15 -3 43 -16 35 -6 -4 -8 0 -4 10 3 8 0 18 -8 20
-7 3 -21 27 -31 54 -10 26 -23 53 -29 58 -6 6 -19 21 -30 34 -19 23 -19 24 -1
17 16 -5 17 -4 6 9 -7 8 -9 15 -4 15 5 0 1 5 -9 11 -9 5 -22 7 -28 4 -6 -4 -9
-1 -7 7 2 8 -14 32 -34 52 -21 21 -38 45 -38 53 0 9 -6 13 -14 10 -10 -4 -13
-1 -10 8 3 7 -3 18 -14 24 -11 6 -27 17 -34 23 -20 19 -50 38 -70 44 -10 4
-18 12 -18 19 0 10 8 11 35 4 23 -7 41 -7 52 0 15 8 13 10 -12 15 -17 4 -51
13 -76 21 -56 18 -62 18 -53 3 5 -7 3 -8 -7 -3 -7 5 -21 10 -30 10 -10 1 -30
10 -46 20 -15 11 -32 20 -38 20 -70 5 -135 19 -124 26 10 6 7 9 -12 9 -40 0
-143 -21 -156 -32 -7 -6 -13 -8 -13 -5 0 3 -25 -3 -57 -14 -77 -26 -83 -25
-74 9 5 16 13 37 19 48 6 10 25 51 42 91 16 39 62 138 100 218 39 81 70 151
70 156 0 5 132 9 320 9 l320 0 0 -22z m-911 -1024 c19 -6 37 -17 39 -23 2 -6
10 -11 18 -11 8 0 14 -4 14 -10 0 -5 9 -10 19 -10 10 0 19 -6 18 -12 -1 -37 4
-48 24 -48 11 0 17 -4 14 -10 -3 -5 1 -10 11 -10 13 0 14 -3 4 -15 -10 -12 -8
-18 11 -35 13 -10 27 -19 31 -20 5 0 29 -15 55 -33 51 -36 82 -51 97 -48 5 1
15 -8 23 -19 10 -14 21 -19 33 -15 41 13 112 -43 170 -135 30 -47 35 -62 34
-115 -1 -80 -7 -99 -32 -103 -23 -4 -31 -35 -12 -47 6 -3 10 -12 10 -18 0 -8
-3 -8 -9 1 -9 14 -17 -8 -28 -73 -3 -16 -9 -33 -14 -36 -6 -3 -3 -11 6 -19 21
-18 19 -33 -5 -25 -16 5 -20 2 -20 -19 0 -14 -4 -26 -9 -26 -5 0 -12 -7 -15
-16 -5 -13 -2 -15 13 -11 28 7 48 -18 31 -38 -10 -12 -10 -15 1 -15 11 -1 10
-3 -2 -13 -8 -7 -21 -21 -27 -32 -6 -11 -12 -15 -12 -8 0 17 -30 4 -30 -13 0
-8 -5 -14 -11 -14 -6 0 -8 7 -5 16 3 9 6 22 6 30 0 9 4 13 9 10 14 -9 38 3 38
19 0 19 -34 19 -53 0 -16 -16 -49 -21 -40 -6 9 14 -16 29 -54 33 -30 3 -35 6
-32 27 2 19 -2 22 -18 18 -11 -3 -17 -1 -14 4 10 16 -28 23 -40 7 -11 -14 -50
-22 -41 -8 2 4 -7 13 -20 20 -14 7 -25 18 -25 23 0 12 -8 22 -87 105 -57 59
-93 78 -93 48 0 -8 6 -16 13 -19 8 -3 21 -21 31 -41 26 -55 10 -76 -59 -76
-29 0 -55 4 -57 9 -1 5 -25 12 -52 15 -41 6 -52 4 -71 -14 -19 -18 -27 -20
-43 -11 -26 14 -32 14 -32 -1 0 -14 69 -78 83 -78 4 0 5 -4 2 -10 -3 -6 5 -10
19 -10 13 0 35 -4 48 -9 16 -6 40 -3 78 10 91 30 109 24 116 -40 3 -22 1 -23
-39 -17 -83 12 -263 25 -310 22 -44 -3 -49 -1 -62 25 -17 32 -20 115 -5 124 6
3 10 19 10 35 0 16 6 35 13 42 15 14 37 53 37 63 0 12 -78 -35 -109 -67 -61
-61 -92 -166 -60 -204 10 -13 15 -45 19 -147 0 -5 5 -5 10 -2 6 3 10 -2 11
-12 0 -10 9 0 22 24 25 52 54 64 78 34 9 -11 25 -21 34 -21 26 0 113 -31 124
-44 8 -9 -3 -10 -47 -5 -31 3 -58 5 -59 4 -2 -1 17 -16 42 -34 25 -18 43 -36
40 -41 -8 -14 10 -20 82 -29 43 -5 77 -5 93 2 21 9 22 11 7 14 -18 5 -18 5 0
17 10 7 43 19 73 26 30 7 60 20 66 28 10 14 13 13 22 -5 11 -21 6 -59 -11 -81
-14 -18 -2 -25 21 -13 32 17 63 68 68 109 14 127 21 151 39 122 3 -5 1 -10 -6
-10 -7 0 -10 -3 -7 -6 3 -3 29 1 56 10 46 13 51 13 57 -2 3 -9 3 -14 0 -10 -4
3 -15 -2 -26 -13 -20 -20 -26 -34 -10 -25 12 8 22 -20 15 -39 -4 -8 -15 -15
-26 -15 -12 0 -23 -11 -29 -30 -6 -16 -14 -30 -19 -30 -4 0 -10 -9 -13 -21 -4
-13 -10 -18 -18 -13 -7 4 -10 3 -6 -3 8 -12 -20 -39 -30 -30 -10 10 -33 -13
-33 -33 0 -21 -50 -55 -95 -66 -16 -4 -34 -10 -40 -14 -22 -16 -74 -19 -88 -6
-11 12 -15 11 -25 -4 -21 -34 -141 -46 -199 -20 -33 15 -103 85 -103 104 0 19
-87 181 -111 207 -15 16 -38 56 -50 87 -20 50 -23 76 -23 209 l-1 152 30 31
c52 56 107 87 135 79 21 -6 22 -7 5 -8 -19 -2 -19 -2 -1 -12 15 -9 16 -13 5
-21 -9 -6 14 -7 66 -3 44 3 83 12 87 18 4 7 13 12 20 12 8 0 16 23 22 67 7 57
6 70 -10 92 -21 28 -114 63 -196 73 -26 3 -49 12 -52 19 -3 8 1 14 9 14 8 0
22 14 32 30 9 17 21 30 25 30 4 0 8 5 8 12 0 6 6 19 13 27 13 15 41 88 53 136
7 25 63 66 113 81 46 15 155 14 200 -2z m1185 -320 c5 -14 4 -15 -9 -4 -17 14
-19 20 -6 20 5 0 12 -7 15 -16z m-48 -37 c-3 -14 1 -33 10 -45 16 -23 6 -30
-14 -10 -19 19 -14 78 6 78 2 0 2 -10 -2 -23z m61 -42 c0 -8 -4 -15 -8 -15 -4
0 -9 7 -13 15 -3 9 0 15 8 15 7 0 13 -7 13 -15z m-1587 -30 c11 -13 8 -15 -13
-15 -28 0 -44 15 -25 23 21 9 25 8 38 -8z m1570 -31 c0 -8 -5 -12 -10 -9 -6 4
-8 11 -5 16 9 14 15 11 15 -7z m-1671 -107 c-2 -1 -12 -9 -21 -16 -15 -12 -18
-11 -18 3 0 10 8 16 22 16 12 0 19 -1 17 -3z m1706 -16 c-3 -5 -1 -12 5 -16
15 -9 12 -32 -4 -38 -10 -4 -12 0 -9 14 3 10 0 19 -6 19 -5 0 -8 7 -5 15 4 8
10 15 16 15 5 0 7 -4 3 -9z m120 -269 c-8 -8 -25 10 -19 20 4 6 9 5 15 -3 4
-7 6 -15 4 -17z m-1736 -81 c-8 -17 -18 -31 -22 -31 -10 0 1 39 16 58 17 21
20 5 6 -27z m-402 5 c-3 -7 -1 -18 3 -22 13 -13 -3 -34 -18 -25 -10 6 -11 13
-1 34 12 28 25 38 16 13z m2623 -197 c0 -91 -4 -138 -10 -134 -5 3 -10 -1 -10
-10 0 -9 4 -14 10 -10 5 3 9 -41 9 -115 -1 -66 -4 -118 -9 -115 -4 2 -17 33
-30 67 -24 68 -36 88 -53 88 -5 0 -3 -8 5 -17 37 -42 63 -141 34 -130 -8 3
-17 3 -19 -1 -5 -10 0 9 9 32 5 14 3 17 -7 14 -8 -3 -14 -11 -14 -18 0 -7 -6
-15 -14 -18 -10 -3 -12 0 -8 11 3 8 0 18 -7 20 -7 3 -16 19 -19 35 -3 16 -13
37 -22 46 -12 12 -13 16 -3 17 10 0 10 2 1 6 -7 2 -13 11 -13 19 0 9 -5 12
-11 9 -5 -4 -19 4 -30 17 -12 12 -24 23 -29 23 -5 0 -12 3 -16 8 -4 4 -1 7 8
7 8 0 15 7 15 15 0 8 -4 15 -9 15 -5 0 -6 10 -3 23 4 16 0 28 -12 38 -16 13
-17 12 -4 -3 10 -14 11 -18 1 -18 -21 0 -39 33 -40 72 0 20 -6 39 -12 41 -8 3
-6 6 5 6 10 1 17 10 18 24 1 16 2 18 6 5 2 -10 9 -18 14 -18 5 0 9 -9 9 -21 0
-11 5 -17 10 -14 6 3 10 2 10 -4 0 -13 82 -141 91 -141 6 0 13 -19 21 -57 2
-10 25 -33 32 -33 3 0 0 14 -5 30 -6 17 -15 30 -20 30 -5 0 -9 5 -9 11 0 6
-15 31 -32 57 -18 26 -32 50 -30 55 1 4 -2 7 -8 7 -5 0 -10 6 -10 13 0 7 -14
32 -30 54 -20 27 -27 44 -20 48 6 4 17 -1 24 -10 9 -12 19 -15 34 -11 12 4 20
11 18 15 -3 4 5 7 17 8 12 0 48 1 80 2 39 1 57 5 57 14 0 11 19 37 27 37 2 0
3 -63 3 -141z m-2063 69 c7 -5 13 -5 17 0 6 11 56 4 56 -8 0 -4 17 -7 37 -6
29 1 39 -4 48 -21 11 -21 11 -21 23 -3 18 29 42 14 42 -26 0 -19 -5 -34 -11
-34 -5 0 -8 4 -5 9 3 5 -7 11 -22 14 -15 3 -29 1 -32 -4 -4 -5 -20 -5 -40 0
-19 5 -56 12 -82 16 -48 6 -61 15 -72 51 -5 15 -2 21 11 21 10 0 23 -4 30 -9z
m1750 -14 c-9 -9 -28 6 -21 18 4 6 10 6 17 -1 6 -6 8 -13 4 -17z m-1123 -49
c3 -8 1 -15 -3 -15 -5 0 -11 7 -15 15 -3 8 -1 15 3 15 5 0 11 -7 15 -15z m896
-54 c0 -18 -18 -21 -30 -6 -10 13 -9 15 9 15 11 0 21 -4 21 -9z m-1337 -8 c-7
-2 -19 -2 -25 0 -7 3 -2 5 12 5 14 0 19 -2 13 -5z m-726 -40 c-3 -10 -5 -4 -5
12 0 17 2 24 5 18 2 -7 2 -21 0 -30z m-12 -133 c0 -27 -2 -35 -8 -24 -7 13 -2
64 6 64 1 0 2 -18 2 -40z m35 16 c0 -3 -4 -8 -10 -11 -5 -3 -10 -1 -10 4 0 6
5 11 10 11 6 0 10 -2 10 -4z m-28 -101 c-15 -20 -18 -20 -28 -7 -6 9 -9 23 -7
33 4 15 9 16 28 7 23 -10 23 -12 7 -33z m2388 5 c0 -5 -4 -10 -9 -10 -6 0 -13
5 -16 10 -3 6 1 10 9 10 9 0 16 -4 16 -10z m-160 -10 c0 -5 -2 -10 -4 -10 -3
0 -8 5 -11 10 -3 6 -1 10 4 10 6 0 11 -4 11 -10z m73 -50 c3 -11 1 -20 -4 -20
-5 0 -9 9 -9 20 0 11 2 20 4 20 2 0 6 -9 9 -20z m304 -52 c-3 -8 -6 -5 -6 6
-1 11 2 17 5 13 3 -3 4 -12 1 -19z m-20 -8 c-3 -11 0 -21 7 -23 8 -3 8 -10 -1
-28 -6 -13 -14 -31 -16 -39 -3 -8 -6 -3 -6 12 -1 21 -5 26 -20 23 -23 -4 -38
25 -19 36 7 4 18 3 25 -3 9 -7 13 -7 13 0 0 6 -4 14 -10 17 -17 10 -11 21 11
22 16 2 20 -3 16 -17z m-2687 -61 c0 -5 -5 -9 -11 -9 -5 0 -8 -4 -5 -8 4 -7
-23 -8 -42 -3 -1 1 3 7 9 14 15 15 49 20 49 6z m2684 -114 c-5 -29 -5 -29 10
-11 15 18 16 -2 16 -237 l0 -257 -22 0 c-114 -2 -249 -9 -257 -14 -5 -4 -17 4
-25 16 -32 45 -25 48 119 48 78 0 135 4 135 9 0 6 -9 8 -20 6 -12 -2 -75 -5
-142 -6 l-122 -1 -16 33 c-8 19 -18 36 -22 37 -5 2 -8 17 -8 33 0 17 4 28 9
25 4 -3 6 6 3 19 -5 29 12 33 27 8 9 -16 10 -16 11 -2 0 9 -8 20 -17 23 -14 6
-15 9 -3 16 19 11 70 -15 71 -38 1 -9 0 -26 -1 -37 -1 -19 0 -18 15 3 9 13 14
29 11 37 -3 8 -2 15 3 15 4 0 8 7 8 15 0 10 -7 13 -22 9 -15 -4 -22 -1 -22 10
0 18 24 29 32 16 4 -6 12 -10 18 -10 8 0 8 3 2 8 -17 12 -14 41 4 35 9 -3 6 3
-8 15 -13 11 -21 24 -17 31 4 6 1 11 -8 11 -10 0 -13 6 -10 15 4 9 0 15 -8 15
-13 0 -15 7 -21 64 -1 13 -5 22 -9 19 -5 -2 -8 5 -8 17 0 17 3 19 18 11 13 -7
23 -6 30 1 7 7 13 8 13 2 6 -42 5 -54 -5 -54 -6 0 -5 -4 3 -9 7 -5 10 -14 7
-20 -8 -12 -4 -14 18 -5 8 3 12 12 9 20 -3 7 5 34 17 59 21 44 36 62 23 28 -4
-10 -2 -14 4 -10 20 12 21 -17 2 -55 -25 -49 -24 -54 4 -25 12 13 34 32 50 42
15 9 27 25 27 34 1 10 7 4 17 -14 9 -16 18 -25 20 -18 2 7 0 21 -6 32 -15 27
-14 29 12 33 28 4 37 -9 31 -47z m-2754 -103 c-6 -2 -10 -14 -10 -27 0 -25
-19 -45 -21 -23 -6 51 15 93 33 65 4 -7 3 -13 -2 -15z m70 -114 c0 -18 -2 -20
-9 -8 -6 8 -7 18 -5 22 9 14 14 9 14 -14z m2408 -10 c2 -11 -3 -14 -22 -11
-20 4 -22 8 -13 19 15 16 31 13 35 -8z m-2391 -64 c-2 -13 0 -21 4 -18 5 3 9
1 9 -5 0 -5 -5 -13 -11 -16 -6 -4 -8 -14 -5 -24 3 -9 -5 -2 -19 14 -27 32 -33
71 -12 78 23 8 39 -5 34 -29z m-110 4 c-3 -8 -6 -5 -6 6 -1 11 2 17 5 13 3 -3
4 -12 1 -19z m90 -100 c-3 -8 -6 -5 -6 6 -1 11 2 17 5 13 3 -3 4 -12 1 -19z
m2473 -172 l0 -30 -20 22 c-11 12 -20 25 -20 29 0 5 9 9 20 9 16 0 20 -7 20
-30z m90 24 c14 -8 25 -7 40 2 16 10 24 10 42 -1 16 -10 23 -10 26 -2 5 16 42
14 42 -3 0 -8 -7 -16 -15 -20 -8 -3 -15 -10 -15 -16 0 -5 7 -10 15 -10 8 0 15
-7 15 -15 0 -18 -5 -18 -30 -5 -13 7 -27 7 -43 -1 -17 -7 -31 -8 -42 -1 -12 6
-27 6 -46 -2 -38 -14 -50 0 -42 47 6 39 19 45 53 27z m148 -219 l0 -129 -93
92 c-50 50 -102 108 -114 129 l-23 37 115 0 115 0 0 -129z m-503 -101 c3 -5 1
-10 -4 -10 -6 0 -11 5 -11 10 0 6 2 10 4 10 3 0 8 -4 11 -10z m19 -55 c5 -22
4 -26 -4 -15 -5 8 -10 24 -10 34 0 26 6 18 14 -19z"/>
<path d="M3021 3724 c0 -11 3 -14 6 -6 3 7 2 16 -1 19 -3 4 -6 -2 -5 -13z"/>
<path d="M2330 3722 c0 -6 5 -14 11 -18 8 -4 7 -9 -2 -15 -11 -6 -10 -9 4 -15
10 -4 23 -2 30 5 16 16 17 41 2 41 -7 0 -20 3 -29 6 -9 3 -16 1 -16 -4z"/>
<path d="M2893 3504 c-7 -7 -13 -18 -13 -24 0 -15 20 -12 26 5 9 22 0 35 -13
19z"/>
<path d="M3470 2515 c0 -5 5 -17 10 -25 5 -8 10 -10 10 -5 0 6 -5 17 -10 25
-5 8 -10 11 -10 5z"/>
<path d="M3590 2188 c0 -42 28 -46 43 -6 4 11 1 15 -11 13 -9 -1 -20 3 -24 9
-4 6 -8 -1 -8 -16z"/>
<path d="M3610 2120 c0 -5 5 -10 10 -10 6 0 10 5 10 10 0 6 -4 10 -10 10 -5 0
-10 -4 -10 -10z"/>
<path d="M3620 2080 c0 -5 5 -10 10 -10 6 0 10 5 10 10 0 6 -4 10 -10 10 -5 0
-10 -4 -10 -10z"/>
<path d="M3567 2019 c7 -7 15 -10 18 -7 3 3 -2 9 -12 12 -14 6 -15 5 -6 -5z"/>
<path d="M2286 2593 c-1 -1 -16 -3 -34 -5 -21 -1 -32 -8 -33 -18 0 -10 -3 -9
-9 5 -5 11 -9 14 -9 7 -1 -10 -10 -12 -31 -7 -19 4 -30 3 -30 -4 0 -6 -7 -11
-16 -11 -8 0 -13 -4 -10 -9 3 -5 -1 -11 -9 -15 -8 -3 -15 -11 -15 -18 0 -7 -8
-18 -18 -25 -22 -13 -19 -83 4 -83 8 0 14 -8 14 -18 0 -20 30 -42 85 -60 149
-49 238 -55 279 -17 33 31 33 35 -5 35 -16 0 -28 4 -25 9 8 13 116 13 149 -1
47 -19 51 4 7 48 -46 48 -115 74 -199 75 -58 0 -55 4 19 27 38 12 152 14 145
3 -2 -4 5 -8 16 -8 10 -1 26 -9 35 -17 24 -25 52 -37 59 -27 6 11 -45 62 -56
56 -4 -3 -9 1 -12 8 -3 8 -27 22 -54 32 -26 10 -50 21 -53 26 -4 6 -188 18
-194 12z m44 -203 c0 -5 -7 -10 -15 -10 -8 0 -15 5 -15 10 0 6 7 10 15 10 8 0
15 -4 15 -10z m48 -34 c3 -4 -1 -6 -9 -7 -8 0 -36 -2 -64 -4 -27 -2 -59 -1
-70 2 l-20 6 20 8 c21 8 133 4 143 -5z"/>
<path d="M2575 1950 c3 -5 8 -10 11 -10 2 0 4 5 4 10 0 6 -5 10 -11 10 -5 0
-7 -4 -4 -10z"/>
<path d="M3800 1821 c0 -5 5 -13 10 -16 6 -3 10 -2 10 4 0 5 -4 13 -10 16 -5
3 -10 2 -10 -4z"/>
<path d="M3863 1755 c0 -8 4 -15 9 -15 4 0 8 4 8 9 0 6 -4 12 -8 15 -5 3 -9
-1 -9 -9z"/>
<path d="M3946 1505 c4 -8 8 -15 10 -15 2 0 4 7 4 15 0 8 -4 15 -10 15 -5 0
-7 -7 -4 -15z"/>
<path d="M3901 1154 c0 -17 -4 -46 -7 -63 -4 -20 -3 -31 5 -31 6 0 11 12 11
27 0 14 8 35 18 46 15 19 16 20 0 14 -12 -4 -18 0 -21 16 -3 16 -5 13 -6 -9z"/>
<path d="M3870 1008 c0 -19 2 -20 10 -8 13 19 13 30 0 30 -5 0 -10 -10 -10
-22z"/>
<path d="M3750 955 c0 -8 5 -15 10 -15 6 0 10 -6 10 -14 0 -20 25 -37 44 -30
9 3 13 10 10 15 -3 5 0 9 6 9 6 0 8 5 5 10 -5 8 -11 7 -20 0 -11 -9 -20 -6
-40 14 -17 17 -25 20 -25 11z"/>
<path d="M3830 958 c0 -11 12 -10 30 2 12 7 10 9 -8 7 -12 0 -22 -5 -22 -9z"/>
<path d="M3930 770 c0 -6 7 -10 15 -10 8 0 15 2 15 4 0 2 -7 6 -15 10 -8 3
-15 1 -15 -4z"/>
<path d="M3790 645 c0 -8 5 -15 10 -15 6 0 10 7 10 15 0 8 -4 15 -10 15 -5 0
-10 -7 -10 -15z"/>
<path d="M3867 653 c-12 -11 -8 -23 8 -23 8 0 15 7 15 15 0 16 -12 20 -23 8z"/>
<path d="M3892 505 c-7 -8 -8 -15 -3 -15 5 0 16 -3 25 -6 12 -4 16 0 16 15 0
24 -19 27 -38 6z"/>
<path d="M3850 461 c0 -9 33 -21 58 -21 6 0 12 7 12 15 0 10 -11 15 -35 15
-19 0 -35 -4 -35 -9z"/>
<path d="M79 3767 c-16 -11 -39 -17 -52 -15 -18 3 -22 -1 -24 -23 -3 -33 14
-38 112 -35 83 3 142 22 149 49 2 10 2 16 -1 13 -3 -3 -19 4 -36 16 -17 12
-27 17 -24 11 4 -7 2 -15 -4 -19 -6 -3 -15 0 -20 7 -12 20 -65 18 -100 -4z
m-36 -54 c-7 -2 -19 -2 -25 0 -7 3 -2 5 12 5 14 0 19 -2 13 -5z"/>
<path d="M305 3739 c-16 -6 -14 -8 13 -8 33 -1 41 4 20 12 -7 2 -22 1 -33 -4z"/>
<path d="M1680 3210 c-14 -11 -32 -20 -41 -20 -18 0 -45 -27 -37 -36 4 -3 100
55 117 72 14 13 -18 0 -39 -16z"/>
<path d="M1431 2714 c0 -11 3 -14 6 -6 3 7 2 16 -1 19 -3 4 -6 -2 -5 -13z"/>
<path d="M895 2331 c-3 -5 -1 -12 5 -16 5 -3 10 1 10 9 0 18 -6 21 -15 7z"/>
<path d="M930 2321 c0 -5 5 -13 10 -16 6 -3 10 -2 10 4 0 5 -4 13 -10 16 -5 3
-10 2 -10 -4z"/>
<path d="M911 2283 c1 -10 1 -53 0 -95 l-1 -77 -55 2 c-52 2 -55 3 -55 28 0
14 -6 31 -12 37 -10 10 -10 15 2 22 11 7 7 10 -16 10 -29 0 -32 -3 -37 -42 -6
-39 -3 -46 26 -71 24 -22 32 -25 37 -14 3 11 20 15 55 15 108 -1 119 7 91 63
-18 36 -21 53 -7 45 5 -3 9 10 9 29 0 19 -4 35 -9 35 -5 0 -9 7 -9 15 0 8 -5
15 -11 15 -5 0 -9 -8 -8 -17z"/>
<path d="M291 2278 c0 -7 4 -22 8 -32 10 -26 25 -3 16 24 -7 22 -25 28 -24 8z"/>
<path d="M445 2257 c-4 -10 -5 -21 -1 -24 10 -10 18 4 13 24 -4 17 -4 17 -12
0z"/>
<path d="M0 2221 c0 -34 4 -41 30 -53 39 -17 39 -38 0 -38 -17 0 -30 -4 -30
-10 0 -5 5 -10 11 -10 5 0 8 -4 4 -9 -8 -14 29 -17 120 -11 95 7 112 4 120
-21 5 -15 10 -17 24 -9 10 5 22 6 27 2 5 -5 27 -14 48 -21 35 -12 41 -12 51 3
7 9 26 17 43 19 17 1 30 7 29 12 -3 13 -67 14 -75 0 -3 -5 -9 1 -12 15 -4 19
-16 27 -55 37 -43 11 -52 10 -61 -2 -12 -16 -54 -21 -54 -6 0 14 26 32 34 23
4 -4 12 1 17 11 7 12 23 17 53 17 30 0 46 5 50 15 3 8 1 15 -4 15 -5 0 -11 8
-13 18 -4 15 -5 15 -6 -2 -1 -16 -9 -18 -92 -15 -75 3 -93 1 -98 -11 -3 -9
-10 -15 -16 -15 -13 1 -67 36 -80 52 -5 7 -22 17 -37 22 -28 10 -28 10 -28
-28z m117 -107 c-3 -3 -12 -4 -19 -1 -8 3 -5 6 6 6 11 1 17 -2 13 -5z"/>
<path d="M215 2240 c-11 -5 -15 -9 -8 -9 6 -1 18 -4 27 -7 11 -4 16 -1 16 10
0 18 -6 19 -35 6z"/>
<path d="M125 2230 c-3 -5 3 -10 14 -10 11 0 23 5 26 10 3 6 -3 10 -14 10 -11
0 -23 -4 -26 -10z"/>
<path d="M661 2140 c1 -33 6 -60 11 -60 13 0 27 44 17 55 -5 5 -9 22 -9 37 0
15 -5 28 -11 28 -6 0 -9 -23 -8 -60z"/>
<path d="M445 2173 c-23 -6 -35 -21 -35 -46 0 -28 26 -31 54 -6 21 18 24 25
13 38 -10 12 -9 13 2 6 10 -5 12 -4 7 3 -8 13 -9 13 -41 5z"/>
<path d="M521 2148 c0 -18 3 -28 5 -22 3 7 14 10 24 7 16 -4 20 0 20 21 0 21
-5 26 -25 26 -22 0 -25 -4 -24 -32z"/>
<path d="M975 2127 c-8 -19 -2 -31 13 -26 5 2 6 13 2 24 -7 19 -8 19 -15 2z"/>
<path d="M1020 2125 c0 -9 5 -15 11 -13 6 2 11 8 11 13 0 5 -5 11 -11 13 -6 2
-11 -4 -11 -13z"/>
<path d="M540 2100 c0 -5 5 -10 10 -10 6 0 10 5 10 10 0 6 -4 10 -10 10 -5 0
-10 -4 -10 -10z"/>
<path d="M1243 2103 c-7 -3 -13 -9 -13 -14 0 -12 37 -12 44 0 7 11 -14 20 -31
14z"/>
<path d="M1287 2086 c-4 -10 -1 -13 8 -9 8 3 12 9 9 14 -7 12 -11 11 -17 -5z"/>
<path d="M201 2081 c-8 -6 -9 -11 -3 -15 6 -3 14 -1 17 5 9 14 2 20 -14 10z"/>
<path d="M545 2041 l30 -6 -23 -23 c-12 -12 -22 -24 -22 -27 0 -12 60 -4 74
10 8 8 28 15 45 15 17 0 31 5 31 11 0 7 -15 9 -41 6 -26 -3 -45 0 -54 9 -7 8
-26 13 -42 13 l-28 -1 30 -7z m45 -35 c0 -3 -4 -8 -10 -11 -5 -3 -10 -1 -10 4
0 6 5 11 10 11 6 0 10 -2 10 -4z"/>
<path d="M736 2036 c7 -19 38 -22 32 -3 -3 6 -12 13 -21 15 -12 2 -15 -1 -11
-12z"/>
<path d="M956 2035 c-3 -8 -15 -15 -26 -15 -11 0 -20 -7 -20 -15 0 -8 3 -15 8
-14 15 1 66 35 70 47 6 18 -25 15 -32 -3z"/>
<path d="M180 2036 c0 -2 7 -6 15 -10 8 -3 15 -1 15 4 0 6 -7 10 -15 10 -8 0
-15 -2 -15 -4z"/>
<path d="M1225 2030 c-3 -5 3 -10 15 -10 12 0 18 5 15 10 -3 6 -10 10 -15 10
-5 0 -12 -4 -15 -10z"/>
<path d="M0 1995 c0 -39 6 -42 38 -19 34 23 29 54 -8 54 -28 0 -30 -3 -30 -35z"/>
<path d="M137 2015 c-4 -8 -2 -17 2 -20 5 -2 11 4 14 15 6 23 -8 27 -16 5z"/>
<path d="M1148 2023 c7 -3 16 -2 19 1 4 3 -2 6 -13 5 -11 0 -14 -3 -6 -6z"/>
<path d="M400 2001 c0 -12 4 -21 9 -21 5 0 17 -3 26 -6 13 -5 16 -2 13 17 -4
32 -48 41 -48 10z"/>
<path d="M1070 2000 c0 -6 9 -10 21 -10 11 0 29 -4 39 -10 13 -7 21 -6 30 5 7
8 11 15 9 16 -28 7 -99 7 -99 -1z"/>
<path d="M1028 1993 c7 -3 16 -2 19 1 4 3 -2 6 -13 5 -11 0 -14 -3 -6 -6z"/>
<path d="M750 1965 c0 -8 -7 -15 -15 -15 -9 0 -15 -9 -15 -24 0 -32 -9 -36
-40 -20 -19 10 -20 14 -7 14 9 0 17 6 17 13 0 10 -18 14 -69 15 -59 1 -69 -1
-74 -17 -8 -30 -108 -42 -143 -17 -13 10 -23 11 -32 4 -7 -6 -29 -11 -50 -12
-28 -1 -38 -6 -40 -20 -4 -16 0 -18 31 -12 46 9 59 -9 55 -71 -4 -45 -7 -49
-44 -68 -22 -11 -53 -30 -70 -42 -37 -27 -69 -33 -69 -13 0 9 11 16 27 18 14
2 32 10 38 18 11 12 7 14 -23 14 -20 0 -47 -5 -61 -11 -20 -10 -30 -9 -50 5
-14 9 -45 16 -71 16 l-45 0 0 -38 c0 -32 3 -38 23 -38 12 0 28 8 35 18 16 21
42 13 42 -14 0 -16 -5 -19 -24 -14 -35 9 -48 -14 -44 -76 3 -51 4 -53 33 -54
48 -2 55 -4 55 -12 0 -4 -13 -13 -29 -20 -19 -9 -28 -18 -24 -28 3 -8 0 -14
-6 -14 -6 0 -11 8 -11 19 0 14 -6 17 -25 13 -23 -4 -25 -9 -25 -53 l0 -49 44
0 c25 0 48 5 51 10 3 6 -1 10 -10 10 -9 0 -13 5 -10 10 3 6 15 10 26 10 10 0
19 7 19 15 0 8 -7 15 -15 15 -8 0 -15 4 -15 10 0 12 141 7 161 -6 16 -10 48
-15 97 -15 18 0 30 -4 27 -9 -3 -4 5 -10 16 -13 30 -8 13 -29 -19 -24 -15 2
-21 2 -13 -1 12 -3 12 -5 0 -13 -10 -6 -10 -9 -1 -9 22 0 13 -19 -28 -60 -56
-56 -71 -54 -63 13 3 28 11 55 17 59 18 12 -5 9 -62 -7 -29 -9 -50 -20 -47
-25 4 -6 1 -10 -4 -10 -6 0 -11 7 -11 15 0 12 -13 15 -56 15 -50 0 -55 -2 -49
-17 5 -10 8 -25 7 -33 -2 -58 -2 -81 6 -180 1 -11 7 -20 13 -20 6 0 8 9 4 20
-5 14 -2 20 9 20 9 0 17 -8 17 -17 1 -10 3 -33 5 -52 2 -25 -2 -34 -16 -38
-11 -3 -16 -11 -13 -19 3 -8 0 -14 -6 -14 -6 0 -11 -10 -11 -22 1 -21 2 -21
13 -6 19 24 35 8 30 -30 -4 -26 -9 -31 -24 -27 -15 5 -19 1 -19 -15 0 -12 5
-30 10 -41 7 -13 7 -19 0 -19 -6 0 -10 -32 -10 -80 0 -44 -4 -80 -9 -80 -5 0
-7 8 -4 19 3 10 1 21 -4 24 -6 4 -10 -87 -10 -218 -1 -124 3 -227 7 -230 5 -3
7 -19 3 -35 -3 -20 -1 -30 6 -30 7 0 10 -4 7 -9 -3 -5 1 -27 8 -49 12 -34 12
-42 1 -52 -11 -9 -14 -6 -18 12 -2 13 -5 -12 -6 -54 l-1 -78 47 0 46 0 -4 388
-4 387 40 -2 c22 -2 63 -5 90 -7 l50 -5 -35 14 c-19 7 -46 14 -60 15 -24 1
-24 1 -6 15 11 8 36 15 56 15 20 0 40 4 46 9 22 21 64 21 84 1 26 -26 26 -25
35 7 4 19 9 23 14 14 6 -9 9 -8 13 6 9 34 8 38 -14 38 -21 0 -47 29 -36 40 3
3 15 7 26 8 11 0 18 5 16 9 -8 13 19 9 48 -6 46 -24 90 -27 111 -8 17 16 19
15 28 -1 14 -24 32 -22 24 3 -7 22 5 26 34 11 13 -7 20 -5 28 9 10 15 9 17 -6
13 -19 -5 -36 21 -25 38 9 15 24 10 24 -8 1 -13 5 -11 15 8 8 14 26 34 40 43
14 9 25 20 25 24 0 4 -36 13 -80 20 -86 12 -85 12 -167 -41 -44 -28 -108 -37
-101 -15 3 7 13 13 24 13 16 0 19 8 20 48 1 42 -1 48 -16 44 -13 -3 -19 2 -23
19 -3 20 -2 22 15 13 23 -12 30 3 25 52 -4 43 -11 48 -37 26 -12 -10 -24 -16
-28 -13 -10 6 -47 -22 -39 -30 4 -4 12 -2 20 4 10 8 13 6 13 -9 0 -14 -5 -17
-18 -13 -10 3 -18 1 -18 -5 0 -6 -6 -11 -13 -11 -10 0 -13 13 -13 43 1 43 27
77 59 77 25 0 40 28 34 66 -5 30 -3 36 19 46 27 12 30 28 12 46 -10 10 -10 15
2 22 9 6 19 5 24 0 15 -15 69 -12 120 5 34 12 59 13 100 7 41 -7 56 -6 60 3 4
12 49 12 88 -1 16 -5 18 6 17 125 0 72 2 135 5 140 4 5 2 12 -4 16 -11 7 -8
53 4 73 5 8 -1 12 -18 12 -14 0 -26 5 -26 10 0 6 5 10 10 10 7 0 7 6 0 20 -6
11 -18 20 -26 20 -8 0 -12 5 -9 10 5 9 -24 15 -48 11 -5 -1 -6 3 -2 8 3 6 -4
15 -15 21 -16 9 -20 8 -20 -5z m-150 -45 c0 -5 -5 -10 -11 -10 -5 0 -7 5 -4
10 3 6 8 10 11 10 2 0 4 -4 4 -10z m57 -54 c-3 -8 1 -17 9 -20 10 -4 14 0 12
11 -6 33 20 22 35 -15 16 -41 32 -52 73 -52 17 0 23 4 18 12 -5 8 -2 9 9 5 9
-3 19 -2 22 3 4 6 14 10 23 9 11 0 12 -3 5 -6 -19 -7 -16 -23 5 -24 29 -2 -29
-17 -69 -18 -47 -1 -99 17 -99 35 0 8 -5 14 -11 14 -6 0 -9 -6 -6 -14 3 -8 1
-16 -5 -18 -7 -3 -12 -31 -12 -68 -1 -61 -3 -64 -30 -73 -20 -7 -35 -6 -47 1
-13 9 -19 8 -23 -3 -3 -8 -14 -15 -25 -15 -14 0 -21 8 -23 28 -2 22 -8 27 -29
25 -19 -1 -30 5 -38 23 -10 22 -8 26 15 34 14 6 22 14 19 20 -3 5 -2 10 4 10
5 0 13 -4 16 -10 3 -5 11 -10 16 -10 6 0 7 5 4 10 -3 6 0 10 8 10 8 0 17 6 20
14 4 11 17 13 48 9 36 -5 41 -4 36 10 -3 9 -1 17 5 19 7 3 9 12 5 21 -4 10
-12 14 -22 11 -9 -4 -15 -1 -15 8 0 7 12 15 26 16 19 1 25 -2 21 -12z m-169
-13 c2 -8 -5 -13 -17 -13 -12 0 -21 6 -21 16 0 18 31 15 38 -3z m-85 -126 c19
-7 22 -24 7 -47 -7 -12 -12 -12 -22 -2 -14 14 -38 16 -38 3 0 -5 14 -12 30
-16 17 -4 31 -12 31 -18 3 -24 5 -33 19 -60 12 -25 18 -28 46 -22 26 4 35 2
43 -14 12 -22 -9 -37 -28 -18 -8 8 -11 8 -11 -1 0 -7 -11 -12 -24 -12 -14 0
-28 -4 -31 -10 -16 -25 -65 2 -65 36 0 13 6 15 30 11 17 -4 30 -5 30 -2 0 2
-20 27 -45 55 -25 28 -45 57 -45 65 0 12 -5 12 -25 3 -34 -15 -44 -2 -15 20
37 26 84 49 90 42 3 -4 13 -9 23 -13z m-168 -137 c14 -23 33 -40 44 -40 10 0
25 -8 34 -18 15 -16 15 -19 -3 -29 -14 -10 -19 -9 -24 2 -3 8 -11 15 -19 15
-15 0 -67 74 -67 96 0 23 8 17 35 -26z m220 20 c3 -5 2 -10 -4 -10 -5 0 -13 5
-16 10 -3 6 -2 10 4 10 5 0 13 -4 16 -10z m-375 -40 c0 -5 -4 -10 -10 -10 -5
0 -10 5 -10 10 0 6 5 10 10 10 6 0 10 -4 10 -10z m90 -49 c0 -6 -4 -13 -10
-16 -5 -3 -10 1 -10 9 0 9 5 16 10 16 6 0 10 -4 10 -9z m120 -51 c0 -5 -2 -10
-4 -10 -3 0 -8 5 -11 10 -3 6 -1 10 4 10 6 0 11 -4 11 -10z m157 4 c-3 -3 -12
-4 -19 -1 -8 3 -5 6 6 6 11 1 17 -2 13 -5z m-379 -46 c-3 -7 -13 -15 -24 -17
-16 -3 -17 -1 -5 13 16 19 34 21 29 4z m122 -118 c0 -21 -16 -24 -60 -10 l-25
8 27 1 c15 1 30 6 33 11 10 17 25 11 25 -10z m0 -89 c0 -13 -25 -20 -49 -14
-12 3 -28 0 -36 -7 -13 -11 -14 -10 -9 3 3 9 20 18 37 20 18 2 38 5 45 5 6 1
12 -2 12 -7z m-14 -111 c0 -24 -5 -40 -13 -40 -17 0 -25 17 -11 23 10 3 10 8
-1 21 -13 15 -13 19 0 27 23 15 26 11 25 -31z m304 0 c0 -5 -4 -10 -10 -10 -5
0 -10 5 -10 10 0 6 5 10 10 10 6 0 10 -4 10 -10z m-300 -65 c0 -8 -9 -15 -20
-15 -22 0 -27 15 -7 23 21 9 27 7 27 -8z m545 5 c-3 -5 -11 -10 -16 -10 -6 0
-7 5 -4 10 3 6 11 10 16 10 6 0 7 -4 4 -10z m-286 -39 c11 -7 9 -11 -9 -21
-27 -15 -56 4 -30 20 18 12 21 12 39 1z m-262 -31 c2 -34 -7 -43 -27 -29 -12
8 -12 12 -2 16 6 2 12 13 12 24 0 31 15 22 17 -11z m411 12 c2 -8 -8 -12 -29
-12 -31 0 -32 1 -13 15 21 16 36 15 42 -3z m-468 -82 c0 -12 -28 -25 -36 -17
-9 9 6 27 22 27 8 0 14 -5 14 -10z m60 -30 c0 -5 -9 -10 -21 -10 -11 0 -17 5
-14 10 3 6 13 10 21 10 8 0 14 -4 14 -10z"/>
<path d="M595 1760 c-3 -5 3 -10 15 -10 12 0 18 5 15 10 -3 6 -10 10 -15 10
-5 0 -12 -4 -15 -10z"/>
<path d="M355 1720 c-3 -5 -2 -10 4 -10 5 0 13 5 16 10 3 6 2 10 -4 10 -5 0
-13 -4 -16 -10z"/>
<path d="M981 1948 c0 -18 3 -26 6 -18 3 8 11 18 17 22 7 5 7 8 -2 8 -7 0 -10
5 -7 10 3 6 1 10 -4 10 -6 0 -11 -15 -10 -32z"/>
<path d="M0 1919 c0 -11 7 -19 15 -19 8 0 15 -8 16 -17 0 -15 2 -15 9 2 14 33
11 42 -15 47 -19 4 -25 1 -25 -13z"/>
<path d="M980 1890 c0 -13 18 -22 24 -11 3 5 -1 11 -9 15 -8 3 -15 1 -15 -4z"/>
<path d="M30 1830 c0 -5 5 -10 10 -10 6 0 10 5 10 10 0 6 -4 10 -10 10 -5 0
-10 -4 -10 -10z"/>
<path d="M1000 1836 c0 -2 7 -7 16 -10 8 -3 12 -2 9 4 -6 10 -25 14 -25 6z"/>
<path d="M280 1800 c0 -19 3 -21 12 -12 9 9 9 15 0 24 -9 9 -12 7 -12 -12z"/>
<path d="M113 1793 c-13 -2 -23 -9 -23 -14 0 -6 5 -7 10 -4 6 3 10 -1 10 -10
0 -12 5 -15 16 -11 9 3 34 7 57 7 34 2 37 3 12 6 -16 3 -34 11 -38 19 -4 8
-11 13 -15 13 -4 -1 -17 -4 -29 -6z"/>
<path d="M36 1781 c-4 -7 -5 -15 -2 -18 9 -9 19 4 14 18 -4 11 -6 11 -12 0z"/>
<path d="M295 1759 c-4 -6 -5 -12 -2 -15 7 -7 37 7 37 17 0 13 -27 11 -35 -2z"/>
<path d="M945 1700 c3 -5 10 -10 16 -10 5 0 9 5 9 10 0 6 -7 10 -16 10 -8 0
-12 -4 -9 -10z"/>
<path d="M990 1675 c0 -9 9 -15 21 -15 18 0 19 2 9 15 -7 8 -16 15 -21 15 -5
0 -9 -7 -9 -15z"/>
<path d="M1098 1633 c7 -3 16 -2 19 1 4 3 -2 6 -13 5 -11 0 -14 -3 -6 -6z"/>
<path d="M1165 1629 c7 -11 35 -12 35 -1 0 4 -9 8 -20 9 -11 1 -18 -2 -15 -8z"/>
<path d="M1067 1603 c-12 -11 25 -43 50 -43 12 0 23 -4 23 -10 0 -5 7 -10 15
-10 8 0 15 5 15 11 0 5 -4 7 -10 4 -5 -3 -10 -2 -10 3 0 5 -13 12 -30 16 -18
3 -30 12 -30 21 0 16 -12 20 -23 8z"/>
<path d="M930 1566 c0 -21 20 -30 33 -17 9 9 8 14 -3 21 -21 14 -30 12 -30 -4z"/>
<path d="M1227 1488 c-3 -12 -2 -29 3 -37 5 -9 10 -11 10 -6 1 6 3 20 6 32 5
29 -12 39 -19 11z"/>
<path d="M650 1446 c0 -2 9 -6 20 -9 11 -3 18 -1 14 4 -5 9 -34 13 -34 5z"/>
<path d="M127 1420 c-9 -11 -17 -25 -17 -30 0 -15 34 -12 66 5 l29 15 -25 1
c-14 0 -19 3 -12 6 14 6 6 23 -11 23 -7 0 -20 -9 -30 -20z"/>
<path d="M218 1413 c7 -3 16 -2 19 1 4 3 -2 6 -13 5 -11 0 -14 -3 -6 -6z"/>
<path d="M31 1324 c0 -11 3 -14 6 -6 3 7 2 16 -1 19 -3 4 -6 -2 -5 -13z"/>
<path d="M35 1241 c-3 -5 -1 -12 5 -16 5 -3 10 1 10 9 0 18 -6 21 -15 7z"/>
<path d="M70 1079 c0 -5 5 -7 10 -4 6 3 10 8 10 11 0 2 -4 4 -10 4 -5 0 -10
-5 -10 -11z"/>
<path d="M980 1050 c0 -13 18 -22 24 -11 3 5 -1 11 -9 15 -8 3 -15 1 -15 -4z"/>
<path d="M557 906 c-33 -6 -55 -14 -51 -18 10 -11 54 -10 54 1 0 5 14 8 31 7
18 0 34 5 36 12 5 14 8 14 -70 -2z"/>
<path d="M810 881 c0 -5 5 -11 12 -13 6 -2 -4 -16 -23 -31 -31 -23 -40 -25
-70 -17 -45 13 -102 13 -94 0 3 -5 19 -10 35 -10 38 0 60 -9 60 -26 0 -8 -10
-14 -25 -14 -14 0 -25 5 -25 11 0 8 -5 8 -15 -1 -12 -10 -21 -10 -45 0 -27 11
-31 10 -54 -16 -28 -34 -23 -39 50 -48 49 -6 54 -4 95 30 24 20 51 44 60 54 9
9 27 25 40 36 13 11 31 28 39 39 14 19 14 19 -2 6 -12 -9 -18 -10 -18 -2 0 6
-4 11 -10 11 -5 0 -10 -4 -10 -9z"/>
<path d="M949 842 c-31 -31 -37 -44 -37 -79 1 -24 4 -43 7 -43 9 0 61 60 61
71 0 5 -6 8 -12 7 -7 -2 -13 6 -13 17 0 11 7 20 15 20 20 0 43 22 35 35 -10
15 -17 12 -56 -28z"/>
<path d="M41 814 c0 -11 3 -14 6 -6 3 7 2 16 -1 19 -3 4 -6 -2 -5 -13z"/>
<path d="M161 668 c0 -40 3 -81 5 -90 8 -27 34 -9 34 24 0 17 -4 27 -10 23 -5
-3 -10 -1 -10 4 0 6 5 11 11 11 6 0 9 19 7 47 -2 36 -7 49 -21 51 -15 3 -17
-5 -16 -70z"/>
<path d="M12 710 c0 -14 2 -19 5 -12 2 6 2 18 0 25 -3 6 -5 1 -5 -13z"/>
<path d="M230 681 c0 -46 2 -51 23 -51 16 0 18 3 9 9 -11 7 -10 9 3 15 26 10
16 70 -12 74 -21 3 -23 0 -23 -47z"/>
<path d="M314 679 c3 -17 6 -35 6 -40 0 -5 7 -9 15 -9 11 0 15 11 15 40 0 34
-3 40 -21 40 -19 0 -21 -4 -15 -31z"/>
<path d="M380 665 c0 -23 6 -37 19 -44 17 -10 19 -6 23 34 3 41 1 45 -19 45
-20 0 -23 -5 -23 -35z"/>
<path d="M704 686 c-8 -22 -1 -59 14 -64 8 -2 12 9 12 37 0 40 -15 55 -26 27z"/>
<path d="M462 663 c2 -17 10 -29 21 -31 13 -3 17 3 17 27 0 25 -4 31 -21 31
-16 0 -20 -5 -17 -27z"/>
<path d="M536 682 c-3 -3 -6 -13 -6 -23 0 -20 20 -26 68 -21 39 5 43 29 5 37
-56 12 -62 13 -67 7z"/>
<path d="M12 625 c0 -16 2 -22 5 -12 2 9 2 23 0 30 -3 6 -5 -1 -5 -18z"/>
<path d="M234 548 c1 -55 3 -61 24 -64 18 -3 22 1 22 21 0 14 -7 28 -15 31
-13 5 -13 9 -1 26 17 24 10 48 -14 48 -15 0 -17 -9 -16 -62z"/>
<path d="M324 585 c-4 -8 -3 -26 0 -40 4 -14 2 -25 -4 -25 -13 0 -13 -61 0
-94 16 -44 32 -31 26 22 -6 61 -6 60 -16 37 -8 -19 -9 -19 -9 3 -1 13 5 22 14
22 11 0 15 12 15 45 0 44 -15 60 -26 30z"/>
<path d="M381 574 c0 -11 3 -14 6 -6 3 7 2 16 -1 19 -3 4 -6 -2 -5 -13z"/>
<path d="M400 575 c0 -8 2 -15 4 -15 2 0 6 7 10 15 3 8 1 15 -4 15 -6 0 -10
-7 -10 -15z"/>
<path d="M911 576 c12 -10 59 -15 59 -6 0 5 -14 10 -32 10 -17 0 -29 -2 -27
-4z"/>
<path d="M536 561 c-4 -6 -5 -19 -1 -30 3 -10 7 -53 10 -96 5 -85 11 -95 61
-95 27 0 32 4 38 31 3 17 6 49 6 70 0 37 -2 39 -32 40 l-33 2 35 6 c34 6 34 7
10 15 -25 8 -25 9 -2 13 27 5 31 43 5 43 -10 0 -34 3 -54 6 -22 4 -39 2 -43
-5z"/>
<path d="M12 540 c0 -14 2 -19 5 -12 2 6 2 18 0 25 -3 6 -5 1 -5 -13z"/>
<path d="M168 545 c-6 -7 -1 -136 7 -143 9 -9 35 20 35 39 0 10 -8 22 -17 27
-15 9 -15 11 1 27 9 10 16 25 14 34 -3 16 -29 27 -40 16z"/>
<path d="M393 523 c-14 -5 -18 -73 -5 -73 12 0 42 34 42 47 0 15 -23 31 -37
26z"/>
<path d="M466 513 c-12 -12 -6 -73 7 -73 8 0 7 -4 -3 -10 -12 -8 -13 -13 -2
-30 7 -12 8 -20 2 -20 -5 0 -10 -4 -10 -10 0 -18 40 -11 41 8 4 65 -1 113 -14
126 -8 8 -17 12 -21 9z"/>
<path d="M10 455 c0 -14 5 -25 10 -25 6 0 10 11 10 25 0 14 -4 25 -10 25 -5 0
-10 -11 -10 -25z"/>
<path d="M237 454 c-10 -11 -9 -44 2 -44 5 0 17 -3 26 -6 13 -6 16 -1 13 22
-3 27 -26 43 -41 28z"/>
<path d="M380 410 c0 -25 4 -30 25 -30 20 0 25 5 25 24 0 22 -16 36 -41 36 -5
0 -9 -13 -9 -30z"/>
<path d="M10 375 c0 -14 5 -25 10 -25 6 0 10 11 10 25 0 14 -4 25 -10 25 -5 0
-10 -11 -10 -25z"/>
<path d="M170 275 c0 -86 2 -96 17 -93 25 5 29 39 7 55 -18 14 -18 15 -1 28
25 18 21 98 -5 103 -16 3 -18 -7 -18 -93z"/>
<path d="M234 344 c3 -9 6 -18 6 -20 0 -2 9 -4 20 -4 13 0 20 7 20 20 0 15 -7
20 -26 20 -20 0 -25 -4 -20 -16z"/>
<path d="M380 320 c0 -16 5 -21 23 -18 12 2 22 10 22 18 0 8 -10 16 -22 18
-18 3 -23 -2 -23 -18z"/>
<path d="M462 308 c2 -12 11 -24 21 -26 14 -3 18 1 15 20 -2 12 -11 24 -21 26
-14 3 -18 -1 -15 -20z"/>
<path d="M22 300 c0 -14 2 -19 5 -12 2 6 2 18 0 25 -3 6 -5 1 -5 -13z"/>
<path d="M240 286 c0 -14 2 -26 4 -26 2 0 12 -3 21 -6 13 -6 16 -1 13 22 -4
38 -38 47 -38 10z"/>
<path d="M790 263 c-133 -55 -141 -59 -213 -92 -37 -17 -70 -31 -72 -31 -3 0
-5 11 -5 24 0 24 -39 46 -41 23 0 -7 -2 -20 -4 -30 -3 -14 1 -16 18 -11 21 6
21 5 4 -12 -12 -13 -31 -18 -57 -18 -28 1 -40 -3 -40 -13 0 -18 -41 -34 -57
-21 -10 8 -13 5 -13 -11 0 -11 -4 -21 -10 -21 -5 0 -13 0 -17 0 -5 0 -8 6 -8
13 0 6 -9 12 -20 12 -15 0 -20 -7 -20 -25 0 -14 -5 -28 -12 -33 -14 -8 -43 1
-43 15 0 5 5 6 11 3 7 -5 9 3 7 21 -6 49 -28 41 -28 -10 l0 -46 38 0 c25 0 70
16 130 45 50 25 94 45 96 45 4 0 92 40 226 102 36 16 104 46 153 65 48 19 87
37 87 39 0 9 -29 0 -110 -33z"/>
<path d="M380 256 c0 -31 14 -40 30 -21 15 18 6 45 -15 45 -9 0 -15 -9 -15
-24z"/>
<path d="M460 239 c0 -17 4 -28 10 -24 6 3 10 13 10 21 0 8 5 12 10 9 6 -3 10
-2 10 3 0 8 -22 22 -36 22 -2 0 -4 -14 -4 -31z"/>
<path d="M237 224 c-4 -4 -7 -16 -7 -26 0 -13 7 -18 26 -18 21 0 25 4 22 22
-3 23 -27 35 -41 22z"/>
<path d="M380 175 c0 -18 5 -25 20 -25 21 0 24 8 14 34 -10 25 -34 19 -34 -9z"/>
<path d="M22 120 c0 -19 2 -27 5 -17 2 9 2 25 0 35 -3 9 -5 1 -5 -18z"/>
<path d="M170 125 c0 -9 6 -12 15 -9 8 4 15 10 15 15 0 5 -7 9 -15 9 -8 0 -15
-7 -15 -15z"/>
<path d="M240 115 c0 -9 6 -12 15 -9 8 4 15 10 15 15 0 5 -7 9 -15 9 -8 0 -15
-7 -15 -15z"/>
<path d="M22 45 c0 -17 2 -22 5 -12 2 9 2 23 0 30 -3 6 -5 -1 -5 -18z"/>
</g>
</svg>
